<mxfile host="app.diagrams.net" modified="2022-09-16T09:39:47.158Z" agent="5.0 (Windows NT 10.0; Win64; x64) AppleWebKit/537.36 (KHTML, like Gecko) Chrome/105.0.0.0 Safari/537.36" etag="P19i506PaknNOMiE9Xt0" version="20.3.1" type="github">
  <diagram id="C5RBs43oDa-KdzZeNtuy" name="Page-1">
    <mxGraphModel dx="1532" dy="720" grid="1" gridSize="10" guides="1" tooltips="1" connect="1" arrows="1" fold="1" page="1" pageScale="1" pageWidth="827" pageHeight="1169" math="0" shadow="0">
      <root>
        <mxCell id="WIyWlLk6GJQsqaUBKTNV-0" />
        <mxCell id="WIyWlLk6GJQsqaUBKTNV-1" parent="WIyWlLk6GJQsqaUBKTNV-0" />
        <mxCell id="WIyWlLk6GJQsqaUBKTNV-2" value="" style="rounded=0;html=1;jettySize=auto;orthogonalLoop=1;fontSize=11;endArrow=block;endFill=0;endSize=8;strokeWidth=1;shadow=0;labelBackgroundColor=none;edgeStyle=orthogonalEdgeStyle;" parent="WIyWlLk6GJQsqaUBKTNV-1" source="WIyWlLk6GJQsqaUBKTNV-3" edge="1">
          <mxGeometry relative="1" as="geometry">
            <mxPoint x="-600" y="810" as="targetPoint" />
          </mxGeometry>
        </mxCell>
        <mxCell id="WIyWlLk6GJQsqaUBKTNV-3" value="Start" style="rounded=1;whiteSpace=wrap;html=1;fontSize=12;glass=0;strokeWidth=1;shadow=0;" parent="WIyWlLk6GJQsqaUBKTNV-1" vertex="1">
          <mxGeometry x="-740" y="790" width="80" height="40" as="geometry" />
        </mxCell>
        <mxCell id="UAvPD8WfjczdkTZnf0Nm-81" value="" style="edgeStyle=orthogonalEdgeStyle;rounded=0;orthogonalLoop=1;jettySize=auto;html=0;" parent="WIyWlLk6GJQsqaUBKTNV-1" source="UAvPD8WfjczdkTZnf0Nm-73" target="UAvPD8WfjczdkTZnf0Nm-78" edge="1">
          <mxGeometry relative="1" as="geometry" />
        </mxCell>
        <mxCell id="UAvPD8WfjczdkTZnf0Nm-73" value="Input&lt;br&gt;Array" style="shape=parallelogram;perimeter=parallelogramPerimeter;whiteSpace=wrap;html=1;fixedSize=1;" parent="WIyWlLk6GJQsqaUBKTNV-1" vertex="1">
          <mxGeometry x="-620" y="785" width="100" height="50" as="geometry" />
        </mxCell>
        <mxCell id="UAvPD8WfjczdkTZnf0Nm-83" value="Yes" style="edgeStyle=orthogonalEdgeStyle;rounded=0;orthogonalLoop=1;jettySize=auto;html=0;" parent="WIyWlLk6GJQsqaUBKTNV-1" source="UAvPD8WfjczdkTZnf0Nm-76" target="UAvPD8WfjczdkTZnf0Nm-82" edge="1">
          <mxGeometry relative="1" as="geometry" />
        </mxCell>
        <mxCell id="SS6zmwQ81CMFTvqJXIf2-1" value="No" style="edgeStyle=orthogonalEdgeStyle;rounded=0;orthogonalLoop=1;jettySize=auto;html=1;" parent="WIyWlLk6GJQsqaUBKTNV-1" source="UAvPD8WfjczdkTZnf0Nm-76" target="SS6zmwQ81CMFTvqJXIf2-0" edge="1">
          <mxGeometry relative="1" as="geometry" />
        </mxCell>
        <mxCell id="UAvPD8WfjczdkTZnf0Nm-76" value="j &amp;lt; len(Array)" style="rhombus;whiteSpace=wrap;html=1;" parent="WIyWlLk6GJQsqaUBKTNV-1" vertex="1">
          <mxGeometry x="-310" y="763.75" width="93" height="92.5" as="geometry" />
        </mxCell>
        <mxCell id="UAvPD8WfjczdkTZnf0Nm-80" value="" style="edgeStyle=orthogonalEdgeStyle;rounded=0;orthogonalLoop=1;jettySize=auto;html=0;" parent="WIyWlLk6GJQsqaUBKTNV-1" source="UAvPD8WfjczdkTZnf0Nm-78" target="UAvPD8WfjczdkTZnf0Nm-76" edge="1">
          <mxGeometry relative="1" as="geometry" />
        </mxCell>
        <mxCell id="UAvPD8WfjczdkTZnf0Nm-78" value="j = 0&lt;br&gt;stro_list = []&lt;br&gt;stro_chars = dict({&lt;br&gt;&quot;0&quot;:&quot;0&quot;,&lt;br&gt;&quot;1&quot;:&quot;1&quot;,&lt;br&gt;&quot;6&quot;:&quot;9&quot;,&lt;br&gt;&quot;8&quot;:&quot;8&quot;&lt;br&gt;&quot;9&quot;:&quot;6&quot;&lt;br&gt;})" style="whiteSpace=wrap;html=1;" parent="WIyWlLk6GJQsqaUBKTNV-1" vertex="1">
          <mxGeometry x="-480" y="736.25" width="130" height="147.5" as="geometry" />
        </mxCell>
        <mxCell id="UAvPD8WfjczdkTZnf0Nm-93" value="" style="edgeStyle=orthogonalEdgeStyle;rounded=0;orthogonalLoop=1;jettySize=auto;html=0;entryX=0;entryY=0.5;entryDx=0;entryDy=0;exitX=0.5;exitY=0;exitDx=0;exitDy=0;" parent="WIyWlLk6GJQsqaUBKTNV-1" source="UAvPD8WfjczdkTZnf0Nm-82" target="UAvPD8WfjczdkTZnf0Nm-94" edge="1">
          <mxGeometry relative="1" as="geometry">
            <mxPoint x="-263" y="590" as="targetPoint" />
          </mxGeometry>
        </mxCell>
        <mxCell id="UAvPD8WfjczdkTZnf0Nm-82" value="left = 0&lt;br&gt;right = len(Array[j])-1&lt;br&gt;stro_val = None" style="whiteSpace=wrap;html=1;" parent="WIyWlLk6GJQsqaUBKTNV-1" vertex="1">
          <mxGeometry x="-323.5" y="640" width="120" height="60" as="geometry" />
        </mxCell>
        <mxCell id="UAvPD8WfjczdkTZnf0Nm-100" value="Yes" style="edgeStyle=orthogonalEdgeStyle;rounded=0;orthogonalLoop=1;jettySize=auto;html=0;entryX=0;entryY=0.5;entryDx=0;entryDy=0;" parent="WIyWlLk6GJQsqaUBKTNV-1" source="UAvPD8WfjczdkTZnf0Nm-94" target="UAvPD8WfjczdkTZnf0Nm-96" edge="1">
          <mxGeometry relative="1" as="geometry" />
        </mxCell>
        <mxCell id="0LXEsNadSQLcKjnHdv3D-3" value="No" style="edgeStyle=orthogonalEdgeStyle;rounded=0;orthogonalLoop=1;jettySize=auto;html=1;entryX=0.5;entryY=0;entryDx=0;entryDy=0;" edge="1" parent="WIyWlLk6GJQsqaUBKTNV-1" source="UAvPD8WfjczdkTZnf0Nm-94" target="0LXEsNadSQLcKjnHdv3D-0">
          <mxGeometry relative="1" as="geometry" />
        </mxCell>
        <mxCell id="UAvPD8WfjczdkTZnf0Nm-94" value="while (left &amp;lt;= right) and (stro_val == None)" style="rhombus;whiteSpace=wrap;html=1;" parent="WIyWlLk6GJQsqaUBKTNV-1" vertex="1">
          <mxGeometry x="-180" y="533.75" width="160" height="122.5" as="geometry" />
        </mxCell>
        <mxCell id="UAvPD8WfjczdkTZnf0Nm-105" value="Yes" style="edgeStyle=orthogonalEdgeStyle;rounded=0;orthogonalLoop=1;jettySize=auto;html=0;" parent="WIyWlLk6GJQsqaUBKTNV-1" source="UAvPD8WfjczdkTZnf0Nm-96" target="UAvPD8WfjczdkTZnf0Nm-102" edge="1">
          <mxGeometry relative="1" as="geometry" />
        </mxCell>
        <mxCell id="UAvPD8WfjczdkTZnf0Nm-113" value="No" style="edgeStyle=orthogonalEdgeStyle;rounded=0;orthogonalLoop=1;jettySize=auto;html=0;" parent="WIyWlLk6GJQsqaUBKTNV-1" source="UAvPD8WfjczdkTZnf0Nm-96" target="UAvPD8WfjczdkTZnf0Nm-112" edge="1">
          <mxGeometry relative="1" as="geometry" />
        </mxCell>
        <mxCell id="UAvPD8WfjczdkTZnf0Nm-96" value="if (str(Array[j])[right] not in dict) or&lt;br&gt;(str(Array[j])[left] != dict[str(Array[j])[right])" style="rhombus;whiteSpace=wrap;html=1;" parent="WIyWlLk6GJQsqaUBKTNV-1" vertex="1">
          <mxGeometry x="-20" y="310" width="330" height="200" as="geometry" />
        </mxCell>
        <mxCell id="UAvPD8WfjczdkTZnf0Nm-106" style="edgeStyle=orthogonalEdgeStyle;rounded=0;orthogonalLoop=1;jettySize=auto;html=0;entryX=1;entryY=0.5;entryDx=0;entryDy=0;" parent="WIyWlLk6GJQsqaUBKTNV-1" source="UAvPD8WfjczdkTZnf0Nm-102" target="UAvPD8WfjczdkTZnf0Nm-94" edge="1">
          <mxGeometry relative="1" as="geometry">
            <Array as="points">
              <mxPoint x="350" y="190" />
              <mxPoint x="350" y="670" />
              <mxPoint x="50" y="670" />
              <mxPoint x="50" y="595" />
            </Array>
          </mxGeometry>
        </mxCell>
        <mxCell id="UAvPD8WfjczdkTZnf0Nm-102" value="stro_val == False" style="whiteSpace=wrap;html=1;" parent="WIyWlLk6GJQsqaUBKTNV-1" vertex="1">
          <mxGeometry x="85" y="160" width="120" height="60" as="geometry" />
        </mxCell>
        <mxCell id="UAvPD8WfjczdkTZnf0Nm-114" style="edgeStyle=orthogonalEdgeStyle;rounded=0;orthogonalLoop=1;jettySize=auto;html=0;" parent="WIyWlLk6GJQsqaUBKTNV-1" source="UAvPD8WfjczdkTZnf0Nm-112" edge="1">
          <mxGeometry relative="1" as="geometry">
            <mxPoint x="-20" y="594.9999999999998" as="targetPoint" />
          </mxGeometry>
        </mxCell>
        <mxCell id="UAvPD8WfjczdkTZnf0Nm-112" value="left++&lt;br&gt;right--" style="whiteSpace=wrap;html=1;" parent="WIyWlLk6GJQsqaUBKTNV-1" vertex="1">
          <mxGeometry x="85" y="565" width="120" height="60" as="geometry" />
        </mxCell>
        <mxCell id="UAvPD8WfjczdkTZnf0Nm-119" value="Yes" style="edgeStyle=orthogonalEdgeStyle;rounded=0;orthogonalLoop=1;jettySize=auto;html=0;exitX=1;exitY=0.5;exitDx=0;exitDy=0;entryX=1;entryY=0.5;entryDx=0;entryDy=0;" parent="WIyWlLk6GJQsqaUBKTNV-1" source="UAvPD8WfjczdkTZnf0Nm-115" target="UAvPD8WfjczdkTZnf0Nm-118" edge="1">
          <mxGeometry relative="1" as="geometry">
            <mxPoint x="77" y="857.5" as="targetPoint" />
          </mxGeometry>
        </mxCell>
        <mxCell id="0LXEsNadSQLcKjnHdv3D-1" style="edgeStyle=orthogonalEdgeStyle;rounded=0;orthogonalLoop=1;jettySize=auto;html=1;entryX=1;entryY=0.5;entryDx=0;entryDy=0;" edge="1" parent="WIyWlLk6GJQsqaUBKTNV-1" source="UAvPD8WfjczdkTZnf0Nm-115" target="UAvPD8WfjczdkTZnf0Nm-76">
          <mxGeometry relative="1" as="geometry" />
        </mxCell>
        <mxCell id="0LXEsNadSQLcKjnHdv3D-2" value="No" style="edgeLabel;html=1;align=center;verticalAlign=middle;resizable=0;points=[];" vertex="1" connectable="0" parent="0LXEsNadSQLcKjnHdv3D-1">
          <mxGeometry x="-0.7718" y="-2" relative="1" as="geometry">
            <mxPoint as="offset" />
          </mxGeometry>
        </mxCell>
        <mxCell id="UAvPD8WfjczdkTZnf0Nm-115" value="if stro_val == None" style="rhombus;whiteSpace=wrap;html=1;" parent="WIyWlLk6GJQsqaUBKTNV-1" vertex="1">
          <mxGeometry x="-63" y="777.75" width="120" height="126.25" as="geometry" />
        </mxCell>
        <mxCell id="UAvPD8WfjczdkTZnf0Nm-123" style="edgeStyle=orthogonalEdgeStyle;rounded=0;orthogonalLoop=1;jettySize=auto;html=0;entryX=1;entryY=0.5;entryDx=0;entryDy=0;" parent="WIyWlLk6GJQsqaUBKTNV-1" source="UAvPD8WfjczdkTZnf0Nm-118" target="UAvPD8WfjczdkTZnf0Nm-76" edge="1">
          <mxGeometry relative="1" as="geometry" />
        </mxCell>
        <mxCell id="UAvPD8WfjczdkTZnf0Nm-118" value="stro_list.append(str(Array[j]))" style="whiteSpace=wrap;html=1;" parent="WIyWlLk6GJQsqaUBKTNV-1" vertex="1">
          <mxGeometry x="-63" y="950" width="173" height="30" as="geometry" />
        </mxCell>
        <mxCell id="SS6zmwQ81CMFTvqJXIf2-0" value="return stro_list" style="ellipse;whiteSpace=wrap;html=1;" parent="WIyWlLk6GJQsqaUBKTNV-1" vertex="1">
          <mxGeometry x="-323.5" y="920" width="120" height="60" as="geometry" />
        </mxCell>
        <mxCell id="SS6zmwQ81CMFTvqJXIf2-3" style="edgeStyle=orthogonalEdgeStyle;rounded=0;orthogonalLoop=1;jettySize=auto;html=1;" parent="WIyWlLk6GJQsqaUBKTNV-1" source="SS6zmwQ81CMFTvqJXIf2-2" target="UAvPD8WfjczdkTZnf0Nm-102" edge="1">
          <mxGeometry relative="1" as="geometry" />
        </mxCell>
        <mxCell id="SS6zmwQ81CMFTvqJXIf2-2" value="Termination Condition Being Applied" style="ellipse;shape=cloud;whiteSpace=wrap;html=1;" parent="WIyWlLk6GJQsqaUBKTNV-1" vertex="1">
          <mxGeometry x="-150" y="210" width="150" height="80" as="geometry" />
        </mxCell>
        <mxCell id="SS6zmwQ81CMFTvqJXIf2-4" value="" style="rounded=0;html=1;jettySize=auto;orthogonalLoop=1;fontSize=11;endArrow=block;endFill=0;endSize=8;strokeWidth=1;shadow=0;labelBackgroundColor=none;edgeStyle=orthogonalEdgeStyle;" parent="WIyWlLk6GJQsqaUBKTNV-1" source="SS6zmwQ81CMFTvqJXIf2-5" edge="1">
          <mxGeometry relative="1" as="geometry">
            <mxPoint x="699.9999999999995" y="614" as="targetPoint" />
          </mxGeometry>
        </mxCell>
        <mxCell id="SS6zmwQ81CMFTvqJXIf2-5" value="Start" style="rounded=1;whiteSpace=wrap;html=1;fontSize=12;glass=0;strokeWidth=1;shadow=0;" parent="WIyWlLk6GJQsqaUBKTNV-1" vertex="1">
          <mxGeometry x="560" y="594" width="80" height="40" as="geometry" />
        </mxCell>
        <mxCell id="SS6zmwQ81CMFTvqJXIf2-6" value="" style="edgeStyle=orthogonalEdgeStyle;rounded=0;orthogonalLoop=1;jettySize=auto;html=0;" parent="WIyWlLk6GJQsqaUBKTNV-1" source="SS6zmwQ81CMFTvqJXIf2-7" target="SS6zmwQ81CMFTvqJXIf2-12" edge="1">
          <mxGeometry relative="1" as="geometry" />
        </mxCell>
        <mxCell id="SS6zmwQ81CMFTvqJXIf2-7" value="Input&lt;br&gt;Array" style="shape=parallelogram;perimeter=parallelogramPerimeter;whiteSpace=wrap;html=1;fixedSize=1;" parent="WIyWlLk6GJQsqaUBKTNV-1" vertex="1">
          <mxGeometry x="680" y="589" width="100" height="50" as="geometry" />
        </mxCell>
        <mxCell id="SS6zmwQ81CMFTvqJXIf2-11" value="" style="edgeStyle=orthogonalEdgeStyle;rounded=0;orthogonalLoop=1;jettySize=auto;html=0;entryX=0;entryY=0.5;entryDx=0;entryDy=0;" parent="WIyWlLk6GJQsqaUBKTNV-1" source="SS6zmwQ81CMFTvqJXIf2-12" target="0LXEsNadSQLcKjnHdv3D-10" edge="1">
          <mxGeometry relative="1" as="geometry">
            <mxPoint x="990" y="614" as="targetPoint" />
          </mxGeometry>
        </mxCell>
        <mxCell id="SS6zmwQ81CMFTvqJXIf2-12" value="stro_chars = dict({&lt;br&gt;&quot;0&quot;:&quot;0&quot;,&lt;br&gt;&quot;1&quot;:&quot;1&quot;,&lt;br&gt;&quot;6&quot;:&quot;9&quot;,&lt;br&gt;&quot;8&quot;:&quot;8&quot;&lt;br&gt;&quot;9&quot;:&quot;6&quot;&lt;br&gt;})" style="whiteSpace=wrap;html=1;" parent="WIyWlLk6GJQsqaUBKTNV-1" vertex="1">
          <mxGeometry x="820" y="540.25" width="130" height="147.5" as="geometry" />
        </mxCell>
        <mxCell id="SS6zmwQ81CMFTvqJXIf2-35" value="" style="endArrow=none;html=1;rounded=0;" parent="WIyWlLk6GJQsqaUBKTNV-1" edge="1">
          <mxGeometry width="50" height="50" relative="1" as="geometry">
            <mxPoint x="410" y="1120" as="sourcePoint" />
            <mxPoint x="410" y="80" as="targetPoint" />
          </mxGeometry>
        </mxCell>
        <mxCell id="SS6zmwQ81CMFTvqJXIf2-36" value="Iterative" style="ellipse;shape=cloud;whiteSpace=wrap;html=1;" parent="WIyWlLk6GJQsqaUBKTNV-1" vertex="1">
          <mxGeometry x="-770" y="644" width="120" height="80" as="geometry" />
        </mxCell>
        <mxCell id="SS6zmwQ81CMFTvqJXIf2-37" value="Recursive" style="ellipse;shape=cloud;whiteSpace=wrap;html=1;" parent="WIyWlLk6GJQsqaUBKTNV-1" vertex="1">
          <mxGeometry x="560" y="444" width="120" height="80" as="geometry" />
        </mxCell>
        <mxCell id="SS6zmwQ81CMFTvqJXIf2-39" value="General Observation: I did these algorithms by receiving an array of numbers, &lt;br&gt;however, I just realized that the problem is simpler than that.&lt;br&gt;So I will take one line of code to show how it would be if my algorithm&lt;br&gt;was receiving a number&lt;br&gt;.&amp;nbsp;&lt;br&gt;Current Line:&lt;br&gt;if (str(Array[j])[right] not in dict) or&lt;br&gt;(str(Array[j])[left] != dict[str(Array[j])[right])&amp;nbsp;&lt;br&gt;&lt;br&gt;With a number (n):&lt;br&gt;if (!n.givenString[right] in dict) or&lt;br&gt;(n.givenString[left] != n.givenString[right])" style="ellipse;shape=cloud;whiteSpace=wrap;html=1;" parent="WIyWlLk6GJQsqaUBKTNV-1" vertex="1">
          <mxGeometry x="-810" y="160" width="570" height="400" as="geometry" />
        </mxCell>
        <mxCell id="0LXEsNadSQLcKjnHdv3D-4" style="edgeStyle=orthogonalEdgeStyle;rounded=0;orthogonalLoop=1;jettySize=auto;html=1;entryX=0.5;entryY=0;entryDx=0;entryDy=0;" edge="1" parent="WIyWlLk6GJQsqaUBKTNV-1" source="0LXEsNadSQLcKjnHdv3D-0" target="UAvPD8WfjczdkTZnf0Nm-115">
          <mxGeometry relative="1" as="geometry" />
        </mxCell>
        <mxCell id="0LXEsNadSQLcKjnHdv3D-0" value="j++" style="whiteSpace=wrap;html=1;" vertex="1" parent="WIyWlLk6GJQsqaUBKTNV-1">
          <mxGeometry x="-73.5" y="700" width="53.5" height="30" as="geometry" />
        </mxCell>
        <mxCell id="0LXEsNadSQLcKjnHdv3D-13" value="" style="edgeStyle=orthogonalEdgeStyle;rounded=0;orthogonalLoop=1;jettySize=auto;html=1;entryX=0;entryY=0.5;entryDx=0;entryDy=0;" edge="1" parent="WIyWlLk6GJQsqaUBKTNV-1" source="0LXEsNadSQLcKjnHdv3D-9" target="0LXEsNadSQLcKjnHdv3D-14">
          <mxGeometry relative="1" as="geometry">
            <mxPoint x="1460.0000000000005" y="614" as="targetPoint" />
          </mxGeometry>
        </mxCell>
        <mxCell id="0LXEsNadSQLcKjnHdv3D-9" value="left = 0&lt;br&gt;right = len(Array[n])-1&lt;br&gt;stro_val = None" style="whiteSpace=wrap;html=1;" vertex="1" parent="WIyWlLk6GJQsqaUBKTNV-1">
          <mxGeometry x="1270" y="584" width="120" height="60" as="geometry" />
        </mxCell>
        <mxCell id="0LXEsNadSQLcKjnHdv3D-11" value="" style="edgeStyle=orthogonalEdgeStyle;rounded=0;orthogonalLoop=1;jettySize=auto;html=1;" edge="1" parent="WIyWlLk6GJQsqaUBKTNV-1" source="0LXEsNadSQLcKjnHdv3D-10" target="0LXEsNadSQLcKjnHdv3D-9">
          <mxGeometry relative="1" as="geometry" />
        </mxCell>
        <mxCell id="0LXEsNadSQLcKjnHdv3D-10" value="def strobogrammatic_recursive(n, stro_list = []):" style="shape=step;perimeter=stepPerimeter;whiteSpace=wrap;html=1;fixedSize=1;" vertex="1" parent="WIyWlLk6GJQsqaUBKTNV-1">
          <mxGeometry x="990" y="576.5" width="220" height="75" as="geometry" />
        </mxCell>
        <mxCell id="0LXEsNadSQLcKjnHdv3D-16" style="edgeStyle=orthogonalEdgeStyle;rounded=0;orthogonalLoop=1;jettySize=auto;html=1;entryX=0;entryY=0.5;entryDx=0;entryDy=0;" edge="1" parent="WIyWlLk6GJQsqaUBKTNV-1" source="0LXEsNadSQLcKjnHdv3D-14" target="0LXEsNadSQLcKjnHdv3D-35">
          <mxGeometry relative="1" as="geometry">
            <mxPoint x="1596.5" y="440.25" as="targetPoint" />
          </mxGeometry>
        </mxCell>
        <mxCell id="0LXEsNadSQLcKjnHdv3D-17" value="Yes" style="edgeLabel;html=1;align=center;verticalAlign=middle;resizable=0;points=[];" vertex="1" connectable="0" parent="0LXEsNadSQLcKjnHdv3D-16">
          <mxGeometry x="-0.0661" relative="1" as="geometry">
            <mxPoint as="offset" />
          </mxGeometry>
        </mxCell>
        <mxCell id="0LXEsNadSQLcKjnHdv3D-28" value="No" style="edgeStyle=orthogonalEdgeStyle;rounded=0;orthogonalLoop=1;jettySize=auto;html=1;entryX=0.5;entryY=0;entryDx=0;entryDy=0;" edge="1" parent="WIyWlLk6GJQsqaUBKTNV-1" source="0LXEsNadSQLcKjnHdv3D-14" target="0LXEsNadSQLcKjnHdv3D-31">
          <mxGeometry relative="1" as="geometry">
            <mxPoint x="1530" y="760" as="targetPoint" />
          </mxGeometry>
        </mxCell>
        <mxCell id="0LXEsNadSQLcKjnHdv3D-14" value="while (left &amp;lt;= right) and (stro_val == None)" style="rhombus;whiteSpace=wrap;html=1;" vertex="1" parent="WIyWlLk6GJQsqaUBKTNV-1">
          <mxGeometry x="1450" y="553.75" width="160" height="122.5" as="geometry" />
        </mxCell>
        <mxCell id="0LXEsNadSQLcKjnHdv3D-19" value="Yes" style="edgeStyle=orthogonalEdgeStyle;rounded=0;orthogonalLoop=1;jettySize=auto;html=1;entryX=0;entryY=0.5;entryDx=0;entryDy=0;exitX=0.5;exitY=0;exitDx=0;exitDy=0;" edge="1" parent="WIyWlLk6GJQsqaUBKTNV-1" source="0LXEsNadSQLcKjnHdv3D-35" target="0LXEsNadSQLcKjnHdv3D-18">
          <mxGeometry relative="1" as="geometry">
            <mxPoint x="1761.454545454545" y="340.2775482093666" as="sourcePoint" />
          </mxGeometry>
        </mxCell>
        <mxCell id="0LXEsNadSQLcKjnHdv3D-23" value="No" style="edgeStyle=orthogonalEdgeStyle;rounded=0;orthogonalLoop=1;jettySize=auto;html=1;entryX=0;entryY=0.5;entryDx=0;entryDy=0;exitX=1;exitY=0.5;exitDx=0;exitDy=0;" edge="1" parent="WIyWlLk6GJQsqaUBKTNV-1" source="0LXEsNadSQLcKjnHdv3D-35" target="0LXEsNadSQLcKjnHdv3D-22">
          <mxGeometry relative="1" as="geometry">
            <mxPoint x="1926.5" y="440.25" as="sourcePoint" />
          </mxGeometry>
        </mxCell>
        <mxCell id="0LXEsNadSQLcKjnHdv3D-24" style="edgeStyle=orthogonalEdgeStyle;rounded=0;orthogonalLoop=1;jettySize=auto;html=1;entryX=0;entryY=0.5;entryDx=0;entryDy=0;" edge="1" parent="WIyWlLk6GJQsqaUBKTNV-1" source="0LXEsNadSQLcKjnHdv3D-18" target="0LXEsNadSQLcKjnHdv3D-22">
          <mxGeometry relative="1" as="geometry" />
        </mxCell>
        <mxCell id="0LXEsNadSQLcKjnHdv3D-18" value="stro_val == False" style="whiteSpace=wrap;html=1;" vertex="1" parent="WIyWlLk6GJQsqaUBKTNV-1">
          <mxGeometry x="1920" y="220" width="120" height="60" as="geometry" />
        </mxCell>
        <mxCell id="0LXEsNadSQLcKjnHdv3D-25" style="edgeStyle=orthogonalEdgeStyle;rounded=0;orthogonalLoop=1;jettySize=auto;html=1;entryX=1;entryY=0.5;entryDx=0;entryDy=0;" edge="1" parent="WIyWlLk6GJQsqaUBKTNV-1" source="0LXEsNadSQLcKjnHdv3D-22" target="0LXEsNadSQLcKjnHdv3D-14">
          <mxGeometry relative="1" as="geometry">
            <mxPoint x="2160" y="520" as="targetPoint" />
            <Array as="points">
              <mxPoint x="2160" y="615" />
            </Array>
          </mxGeometry>
        </mxCell>
        <mxCell id="0LXEsNadSQLcKjnHdv3D-22" value="left++&lt;br&gt;right--" style="whiteSpace=wrap;html=1;" vertex="1" parent="WIyWlLk6GJQsqaUBKTNV-1">
          <mxGeometry x="2100" y="410.25" width="120" height="60" as="geometry" />
        </mxCell>
        <mxCell id="0LXEsNadSQLcKjnHdv3D-29" value="Yes" style="edgeStyle=orthogonalEdgeStyle;rounded=0;orthogonalLoop=1;jettySize=auto;html=0;exitX=1;exitY=0.5;exitDx=0;exitDy=0;" edge="1" parent="WIyWlLk6GJQsqaUBKTNV-1" source="0LXEsNadSQLcKjnHdv3D-31" target="0LXEsNadSQLcKjnHdv3D-33">
          <mxGeometry relative="1" as="geometry" />
        </mxCell>
        <mxCell id="0LXEsNadSQLcKjnHdv3D-30" value="No" style="edgeStyle=orthogonalEdgeStyle;rounded=0;orthogonalLoop=1;jettySize=auto;html=0;entryX=1;entryY=0.5;entryDx=0;entryDy=0;" edge="1" parent="WIyWlLk6GJQsqaUBKTNV-1" source="0LXEsNadSQLcKjnHdv3D-31" target="0LXEsNadSQLcKjnHdv3D-34">
          <mxGeometry relative="1" as="geometry">
            <mxPoint x="1410" y="869.9999999999998" as="targetPoint" />
          </mxGeometry>
        </mxCell>
        <mxCell id="0LXEsNadSQLcKjnHdv3D-31" value="if stro_val == None" style="rhombus;whiteSpace=wrap;html=1;" vertex="1" parent="WIyWlLk6GJQsqaUBKTNV-1">
          <mxGeometry x="1470" y="740" width="120" height="126.25" as="geometry" />
        </mxCell>
        <mxCell id="0LXEsNadSQLcKjnHdv3D-32" style="edgeStyle=orthogonalEdgeStyle;rounded=0;orthogonalLoop=1;jettySize=auto;html=0;entryX=1;entryY=0.5;entryDx=0;entryDy=0;" edge="1" parent="WIyWlLk6GJQsqaUBKTNV-1" source="0LXEsNadSQLcKjnHdv3D-33" target="0LXEsNadSQLcKjnHdv3D-34">
          <mxGeometry relative="1" as="geometry">
            <mxPoint x="1410" y="869.9999999999998" as="targetPoint" />
          </mxGeometry>
        </mxCell>
        <mxCell id="0LXEsNadSQLcKjnHdv3D-33" value="stro_list.append(str(Array[n]))" style="whiteSpace=wrap;html=1;" vertex="1" parent="WIyWlLk6GJQsqaUBKTNV-1">
          <mxGeometry x="1564" y="916.25" width="166" height="30" as="geometry" />
        </mxCell>
        <mxCell id="0LXEsNadSQLcKjnHdv3D-36" style="edgeStyle=orthogonalEdgeStyle;rounded=0;orthogonalLoop=1;jettySize=auto;html=1;entryX=0.5;entryY=1;entryDx=0;entryDy=0;" edge="1" parent="WIyWlLk6GJQsqaUBKTNV-1" source="0LXEsNadSQLcKjnHdv3D-34" target="0LXEsNadSQLcKjnHdv3D-10">
          <mxGeometry relative="1" as="geometry" />
        </mxCell>
        <mxCell id="0LXEsNadSQLcKjnHdv3D-37" value="No" style="edgeLabel;html=1;align=center;verticalAlign=middle;resizable=0;points=[];" vertex="1" connectable="0" parent="0LXEsNadSQLcKjnHdv3D-36">
          <mxGeometry x="-0.2183" y="-2" relative="1" as="geometry">
            <mxPoint as="offset" />
          </mxGeometry>
        </mxCell>
        <mxCell id="0LXEsNadSQLcKjnHdv3D-40" value="" style="edgeStyle=orthogonalEdgeStyle;rounded=0;orthogonalLoop=1;jettySize=auto;html=1;" edge="1" parent="WIyWlLk6GJQsqaUBKTNV-1" source="0LXEsNadSQLcKjnHdv3D-34" target="0LXEsNadSQLcKjnHdv3D-39">
          <mxGeometry relative="1" as="geometry" />
        </mxCell>
        <mxCell id="0LXEsNadSQLcKjnHdv3D-34" value="if n &amp;lt; 0" style="rhombus;whiteSpace=wrap;html=1;" vertex="1" parent="WIyWlLk6GJQsqaUBKTNV-1">
          <mxGeometry x="1290" y="810" width="80" height="80" as="geometry" />
        </mxCell>
        <mxCell id="0LXEsNadSQLcKjnHdv3D-35" value="if (str(Array[n])[right] not in dict) or&lt;br&gt;(str(Array[n])[left] != dict[str(Array[n])[right])" style="rhombus;whiteSpace=wrap;html=1;" vertex="1" parent="WIyWlLk6GJQsqaUBKTNV-1">
          <mxGeometry x="1570" y="340.25" width="330" height="200" as="geometry" />
        </mxCell>
        <mxCell id="0LXEsNadSQLcKjnHdv3D-39" value="return stro_list[::-1]" style="ellipse;whiteSpace=wrap;html=1;" vertex="1" parent="WIyWlLk6GJQsqaUBKTNV-1">
          <mxGeometry x="1270" y="710" width="120" height="60" as="geometry" />
        </mxCell>
        <mxCell id="0LXEsNadSQLcKjnHdv3D-42" style="edgeStyle=orthogonalEdgeStyle;rounded=0;orthogonalLoop=1;jettySize=auto;html=1;entryX=0;entryY=1;entryDx=0;entryDy=0;exitX=0.875;exitY=0.5;exitDx=0;exitDy=0;exitPerimeter=0;" edge="1" parent="WIyWlLk6GJQsqaUBKTNV-1" source="0LXEsNadSQLcKjnHdv3D-41" target="0LXEsNadSQLcKjnHdv3D-34">
          <mxGeometry relative="1" as="geometry" />
        </mxCell>
        <mxCell id="0LXEsNadSQLcKjnHdv3D-41" value="Terminal Condition of the Recursion:&lt;br&gt;If the n &amp;lt; o, it sends the list and &lt;br&gt;finishes the recursion. If n is not &amp;lt; 0, the we&amp;nbsp;&lt;br&gt;call the function again, executing the recursion:&lt;br&gt;&lt;div&gt;&amp;nbsp; &amp;nbsp; &amp;nbsp; &amp;nbsp; return strobogrammatic_recursive(n-1, stro_list)&lt;/div&gt;&lt;div&gt;&lt;br&gt;&lt;/div&gt;" style="ellipse;shape=cloud;whiteSpace=wrap;html=1;" vertex="1" parent="WIyWlLk6GJQsqaUBKTNV-1">
          <mxGeometry x="830" y="900" width="440" height="210" as="geometry" />
        </mxCell>
      </root>
    </mxGraphModel>
  </diagram>
</mxfile>
